first trial
nRows=22
nColumns=38

# SIMM Motion File Header:
name Sujet_08_velo_60.mvnx
datacolumns 38
datarows 22
otherdata 1
range 3.8830 4.2330
endheader
time pelvis_tilt  pelvis_list  pelvis_rotation  pelvis_tx  pelvis_ty  pelvis_tz  hip_flexion_r  hip_adduction_r  hip_rotation_r  knee_angle_r  ankle_angle_r  subtalar_angle_r  mtp_angle_r  hip_flexion_l  hip_adduction_l  hip_rotation_l  knee_angle_l  ankle_angle_l  subtalar_angle_l  mtp_angle_l  lumbar_extension  lumbar_bending  lumbar_rotation  arm_flex_r  arm_add_r  arm_rot_r  elbow_flex_r  pro_sup_r  wrist_flex_r  wrist_dev_r  arm_flex_l  arm_add_l  arm_rot_l  elbow_flex_l  pro_sup_l  wrist_flex_l  wrist_dev_l
3.8830	-23.1104	-1.5309	18.4533	0.0000	1.2500	-0.0000	70.8922	-7.6750	-8.9155	88.2475	-9.1585	3.9099	-0.0000	75.8975	-0.7611	-9.4115	57.1614	-10.6319	2.7926	0.0000	-11.4598	0.7117	0.8821	88.1301	-5.2974	31.4038	-7.6612	84.8725	-32.3611	-16.4418	77.5757	7.1516	40.1425	-5.4035	76.7132	-31.8874	-15.3634	
3.9000	-23.1481	-1.4795	17.9006	0.0000	1.2500	-0.0000	73.2230	-7.4254	-7.9498	91.3643	-8.8251	4.2571	-0.0000	72.9084	-1.2816	-10.6793	53.2538	-11.3969	2.4963	0.0000	-11.4037	0.5980	1.0351	88.1772	-5.1758	31.3224	-7.7081	85.1030	-32.3900	-16.4975	77.5786	6.9822	40.0105	-5.4880	76.7083	-31.9169	-15.5062	
3.9170	-23.1975	-1.4387	17.3012	0.0000	1.2500	-0.0000	75.6260	-7.0481	-6.9773	94.2385	-8.4909	4.4360	-0.0000	69.9575	-1.7814	-11.7452	49.5349	-12.2917	1.9251	0.0000	-11.3423	0.4623	1.2111	88.2658	-5.0429	31.2539	-7.7267	85.3219	-32.4166	-16.5572	77.6413	6.8038	39.8263	-5.5297	76.7653	-31.9361	-15.6460	
3.9330	-23.2590	-1.4105	16.6630	0.0000	1.2500	-0.0000	78.0732	-6.5590	-6.0500	96.8533	-8.1272	4.5139	0.0000	67.0431	-2.2624	-12.6918	46.0101	-13.2973	1.2025	-0.0000	-11.2749	0.3106	1.4048	88.3742	-4.8982	31.1828	-7.7302	85.5324	-32.4436	-16.6147	77.7374	6.6181	39.6199	-5.5401	76.8465	-31.9490	-15.7823	
3.9500	-23.3123	-1.4187	16.0402	0.0000	1.2500	-0.0000	80.4991	-5.9999	-5.2366	99.1477	-7.7536	4.6105	0.0000	64.2876	-2.7025	-13.6119	42.8646	-14.3430	0.6408	-0.0000	-11.2135	0.1699	1.5955	88.4748	-4.7372	31.0823	-7.7398	85.7254	-32.4778	-16.6432	77.8215	6.4418	39.4572	-5.5363	76.8820	-31.9601	-15.9002	
3.9670	-23.3458	-1.4772	15.4349	0.0000	1.2500	-0.0000	82.9091	-5.3717	-4.5690	101.1253	-7.3643	4.7809	0.0000	61.6940	-3.1168	-14.5324	40.1133	-15.4664	0.3655	0.0000	-11.1617	0.0465	1.7817	88.5543	-4.5527	30.9170	-7.7640	85.9137	-32.5203	-16.6309	77.8725	6.2791	39.3805	-5.5211	76.8286	-31.9717	-15.9960	
3.9830	-23.3699	-1.5717	14.8451	0.0000	1.2500	-0.0000	85.2980	-4.6948	-4.0209	102.7846	-6.9686	4.9674	0.0000	59.2602	-3.5120	-15.4169	37.7347	-16.6260	0.2432	0.0000	-11.1158	-0.0660	1.9647	88.6262	-4.3521	30.7224	-7.7936	86.0845	-32.5701	-16.5897	77.9120	6.1256	39.3473	-5.4917	76.7292	-31.9812	-16.0733	
4.0000	-23.3981	-1.6839	14.3197	0.0000	1.2500	-0.0000	87.5882	-4.0496	-3.5563	104.0560	-6.6097	5.1230	-0.0000	57.1028	-3.8611	-16.2506	35.8500	-17.6308	0.2053	0.0000	-11.0777	-0.1608	2.1276	88.7023	-4.1526	30.5775	-7.8235	86.1911	-32.6309	-16.5280	77.9590	5.9845	39.2967	-5.4565	76.6428	-31.9863	-16.1287	
4.0170	-23.4318	-1.8159	13.8803	0.0000	1.2500	-0.0000	89.7977	-3.4513	-3.1909	104.9219	-6.3154	5.2556	0.0000	55.2260	-4.1727	-17.0618	34.4367	-18.4368	0.2757	0.0000	-11.0504	-0.2327	2.2622	88.7852	-3.9467	30.5158	-7.8559	86.2086	-32.7088	-16.4408	78.0324	5.8539	39.1797	-5.4186	76.6063	-31.9881	-16.1580	
4.0330	-23.4695	-1.9657	13.5050	0.0000	1.2500	-0.0000	91.9134	-2.9021	-2.8909	105.3980	-6.0572	5.3594	-0.0000	53.6270	-4.4670	-17.8063	33.5077	-19.0904	0.4444	0.0000	-11.0311	-0.2872	2.3765	88.8720	-3.7420	30.5037	-7.8885	86.1621	-32.7981	-16.3331	78.1135	5.7356	39.0454	-5.3750	76.5827	-31.9853	-16.1653	
4.0500	-23.5210	-2.1088	13.1778	0.0000	1.2500	-0.0000	93.8122	-2.4534	-2.5309	105.4643	-5.7902	5.3656	0.0000	52.4132	-4.7435	-18.3531	33.2396	-19.5369	0.5961	-0.0000	-11.0122	-0.3336	2.4780	88.9664	-3.5790	30.5205	-7.9105	86.0799	-32.8851	-16.2283	78.1649	5.6381	38.9798	-5.3256	76.5207	-31.9711	-16.1593	
4.0670	-23.5964	-2.2402	12.8964	0.0000	1.2500	-0.0000	95.4991	-2.1437	-2.0035	105.1060	-5.4808	5.2001	0.0000	51.6349	-5.0227	-18.6183	33.7349	-19.7087	0.6605	-0.0000	-10.9896	-0.3715	2.5708	89.0730	-3.4818	30.5593	-7.9186	85.9778	-32.9683	-16.1343	78.1616	5.5643	39.0365	-5.2657	76.3784	-31.9385	-16.1423	
4.0830	-23.6861	-2.3651	12.6627	0.0000	1.2500	-0.0000	96.9715	-1.9309	-1.3937	104.3442	-5.1569	4.9341	-0.0000	51.2430	-5.3098	-18.6737	34.8946	-19.6725	0.7065	0.0000	-10.9677	-0.4014	2.6508	89.1874	-3.4263	30.6271	-7.9165	85.8402	-33.0492	-16.0431	78.1291	5.5113	39.1618	-5.2001	76.1975	-31.8945	-16.1121	
4.1000	-23.7691	-2.4755	12.4659	0.0000	1.2500	-0.0000	98.0946	-1.7464	-0.8640	103.2104	-4.8674	4.7142	0.0000	51.1960	-5.5792	-18.6204	36.5985	-19.5749	0.8204	-0.0000	-10.9516	-0.4332	2.7135	89.2999	-3.3807	30.7240	-7.9027	85.6484	-33.1187	-15.9536	78.1058	5.4794	39.2801	-5.1437	76.0527	-31.8530	-16.0702	
4.1170	-23.8483	-2.5775	12.2958	0.0000	1.2500	-0.0000	98.8366	-1.5677	-0.4003	101.6839	-4.6192	4.5808	0.0000	51.5325	-5.8332	-18.4757	38.8989	-19.4367	1.0330	0.0000	-10.9421	-0.4692	2.7595	89.4135	-3.3380	30.8970	-7.8719	85.3349	-33.1745	-15.8630	78.1111	5.4766	39.3590	-5.1035	75.9781	-31.8190	-16.0149	
4.1330	-23.9213	-2.6645	12.1628	0.0000	1.2500	-0.0000	99.2294	-1.4285	-0.0078	99.7829	-4.4063	4.4882	0.0000	52.2156	-6.0685	-18.2146	41.7530	-19.2356	1.3045	-0.0000	-10.9385	-0.5071	2.7882	89.5254	-3.3054	31.0989	-7.8307	84.9670	-33.2191	-15.7742	78.1255	5.4950	39.4308	-5.0723	75.9398	-31.7875	-15.9479	
4.1500	-23.9587	-2.7101	12.0876	0.0000	1.2500	-0.0000	99.2329	-1.3507	0.1197	97.5898	-4.2627	4.4613	0.0000	53.0910	-6.2469	-17.8795	44.8975	-19.0532	1.6144	-0.0000	-10.9446	-0.5503	2.7939	89.6176	-3.2720	31.1883	-7.7934	84.7284	-33.2499	-15.6948	78.1289	5.5112	39.5170	-5.0440	75.9093	-31.7577	-15.8767	
4.1670	-23.9419	-2.6969	12.0791	0.0000	1.2500	-0.0000	98.8173	-1.3250	-0.1073	95.0988	-4.2241	4.5587	0.0000	54.1376	-6.3438	-17.5048	48.3142	-18.9572	1.9648	0.0000	-10.9643	-0.6026	2.7709	89.6820	-3.2313	31.0570	-7.7600	84.7342	-33.2600	-15.6211	78.0965	5.5177	39.6328	-5.0175	75.8703	-31.7328	-15.7989	
4.1830	-23.8897	-2.6418	12.1285	0.0000	1.2500	-0.0000	98.0124	-1.3566	-0.5988	92.3103	-4.2594	4.7308	-0.0000	55.3763	-6.3762	-17.0603	52.0277	-18.8777	2.3488	0.0000	-10.9938	-0.6601	2.7250	89.7267	-3.1902	30.8130	-7.7289	84.8693	-33.2563	-15.5571	78.0530	5.5221	39.7628	-4.9938	75.8392	-31.7097	-15.7167	
4.2000	-23.8285	-2.5692	12.2292	0.0000	1.2500	-0.0000	96.8673	-1.4847	-1.2829	89.3162	-4.3023	4.8476	0.0000	56.7154	-6.3674	-16.4935	55.8330	-18.6914	2.7382	0.0000	-11.0250	-0.7147	2.6678	89.7579	-3.1578	30.6392	-7.7115	84.9719	-33.2565	-15.5225	78.0540	5.5237	39.8828	-4.9696	75.8371	-31.6783	-15.6439	
4.2170	-23.7588	-2.4692	12.3852	0.0000	1.2500	-0.0000	95.3582	-1.7222	-2.1961	86.1263	-4.2790	4.8676	-0.0000	58.1170	-6.2980	-15.7748	59.6919	-18.3320	3.1527	0.0000	-11.0603	-0.7691	2.5995	89.7794	-3.1287	30.6291	-7.7068	84.9730	-33.2692	-15.5261	78.1326	5.5129	39.9957	-4.9406	75.8656	-31.6251	-15.5855	
4.2330	-23.6795	-2.3519	12.5925	0.0000	1.2500	-0.0000	93.5059	-2.0294	-3.3170	82.7248	-4.2611	4.8409	-0.0000	59.6183	-6.1725	-14.9410	63.6347	-17.8651	3.5746	0.0000	-11.0973	-0.8205	2.5199	89.7875	-3.1078	30.6895	-7.7161	84.9416	-33.2858	-15.5591	78.2558	5.4997	40.0986	-4.9110	75.9231	-31.5637	-15.5365	
